<svg width="18" height="18" viewBox="0 0 18 18" fill="none" xmlns="http://www.w3.org/2000/svg">
<path d="M18 4.46901L3.44681 2.79545L2.48936 0.93595L0.191489 0.75L0 1.4938L1.53191 2.05165L4.02128 10.9773L4.97872 14.5103H16.6596L16.8511 13.3946H5.55319L4.97872 10.9773L17.4255 9.11777L18 4.46901Z" fill="black"/>
<path d="M7.46809 15.9979C7.46809 16.6141 6.95369 17.1136 6.31915 17.1136C5.68461 17.1136 5.17021 16.6141 5.17021 15.9979C5.17021 15.3817 5.68461 14.8822 6.31915 14.8822C6.95369 14.8822 7.46809 15.3817 7.46809 15.9979Z" fill="black"/>
<path d="M15.5106 15.9979C15.5106 16.6141 14.9962 17.1136 14.3617 17.1136C13.7272 17.1136 13.2128 16.6141 13.2128 15.9979C13.2128 15.3817 13.7272 14.8822 14.3617 14.8822C14.9962 14.8822 15.5106 15.3817 15.5106 15.9979Z" fill="black"/>
</svg>
